<svg viewBox="0 0 40 40" fill="none" xmlns="http://www.w3.org/2000/svg">
  <defs>
    <linearGradient id="logo-gradient" x1="0%" y1="0%" x2="100%" y2="100%">
      <stop offset="0%" stop-color="#C6A769" />
      <stop offset="100%" stop-color="#D4B87A" />
    </linearGradient>
  </defs>
  <!-- Shield/storefront shape -->
  <path
    d="M20 2L36 10V22C36 30.837 28.837 38 20 38C11.163 38 4 30.837 4 22V10L20 2Z"
    stroke="url(#logo-gradient)"
    stroke-width="2"
    fill="none"
  />
  <!-- Stylized K -->
  <path
    d="M13 13V27M13 20L19 13M13 20L19 27"
    stroke="url(#logo-gradient)"
    stroke-width="2.5"
    stroke-linecap="round"
    stroke-linejoin="round"
  />
  <!-- Stylized S -->
  <path
    d="M24 14C24 14 27 13 27 15.5C27 18 23 18.5 23 18.5C23 18.5 27 19 27 21.5C27 24 24 26 24 26"
    stroke="url(#logo-gradient)"
    stroke-width="2.5"
    stroke-linecap="round"
    stroke-linejoin="round"
  />
</svg>
